<?xml version="1.0" standalone="no"?>
<!DOCTYPE svg PUBLIC "-//W3C//DTD SVG 20010904//EN"
 "http://www.w3.org/TR/2001/REC-SVG-20010904/DTD/svg10.dtd">
<svg version="1.0" xmlns="http://www.w3.org/2000/svg"
 width="832.000000pt" height="832.000000pt" viewBox="0 0 832.000000 832.000000"
 preserveAspectRatio="xMidYMid meet">
<metadata>
Created by potrace 1.14, written by Peter Selinger 2001-2017
</metadata>
<g transform="translate(0.000000,832.000000) scale(0.100000,-0.100000)"
fill="#000000" stroke="none">
<path d="M3770 8309 c-36 -4 -108 -12 -160 -18 -84 -9 -209 -30 -280 -46 -14
-3 -47 -10 -75 -15 -27 -6 -75 -17 -105 -26 -30 -9 -62 -18 -70 -19 -43 -10
-207 -60 -295 -92 -393 -139 -735 -318 -1059 -551 -204 -146 -518 -428 -665
-597 -24 -27 -53 -61 -65 -75 -47 -53 -175 -219 -232 -300 -432 -616 -689
-1324 -751 -2075 -14 -172 -7 -633 12 -775 2 -14 6 -47 9 -75 8 -65 14 -105
20 -132 2 -11 8 -43 11 -70 11 -73 52 -255 86 -378 74 -265 155 -479 279 -730
212 -429 460 -776 795 -1110 154 -154 350 -320 500 -425 20 -14 53 -38 73 -53
116 -89 538 -325 679 -380 23 -9 61 -25 85 -36 214 -96 632 -217 903 -261 98
-16 127 -20 265 -35 30 -4 66 -8 80 -10 14 -2 52 -4 85 -6 53 -2 56 -3 25 -9
-31 -7 -30 -7 10 -4 25 2 155 5 290 8 135 3 263 7 285 9 22 3 68 8 102 11 34
4 70 9 81 11 10 2 43 6 73 10 30 4 72 10 94 15 22 5 60 11 85 14 164 20 650
169 861 264 24 11 69 30 99 43 70 29 215 105 350 182 190 108 399 256 603 425
98 81 385 364 454 447 23 28 50 60 60 72 45 53 59 70 120 152 178 235 388 596
492 846 19 44 39 94 46 110 51 120 162 463 178 555 3 14 10 43 15 65 6 22 14
56 17 75 3 19 8 42 11 51 2 10 6 30 8 45 2 16 9 56 15 89 6 33 13 83 16 110 4
28 8 61 11 75 26 160 25 917 -1 960 -2 3 -6 36 -10 75 -3 38 -8 72 -10 75 -2
3 -6 26 -9 50 -3 25 -10 70 -16 100 -6 30 -13 66 -16 80 -14 72 -70 281 -106
395 -114 363 -279 708 -497 1040 -36 55 -69 105 -73 110 -5 6 -40 53 -79 105
-63 84 -118 152 -184 229 -174 203 -480 478 -720 649 -55 39 -105 76 -112 82
-7 5 -14 10 -17 10 -2 0 -46 26 -97 58 -257 161 -571 307 -874 407 -90 30
-331 99 -380 109 -387 81 -514 93 -925 93 -184 0 -364 -4 -400 -8z"/>
</g>
</svg>
